<svg width="4079" height="1618" xmlns="http://www.w3.org/2000/svg" xmlns:xlink="http://www.w3.org/1999/xlink" xml:space="preserve" overflow="hidden"><g transform="translate(-200 -398)"><rect x="203.5" y="401.5" width="4072" height="1611" stroke="#042433" stroke-width="6.875" stroke-miterlimit="8" fill="#4A7B6F"/><g><g><g><path d="M291.535 287.327C284.556 208.06 322.119 186.408 320.012 86.2299 319.471 60.2117 316.482 39.2535 314.352 26.8621L154.018 26.8621C151.888 39.2535 148.875 60.2117 148.334 86.2299 146.239 186.408 183.79 208.06 176.823 287.327 172.811 332.904 155.959 376.256 172.787 384.646 175.941 386.223 186.779 386.187 208.302 386.034 219.163 385.976 234.179 386.105 234.179 386.105 234.179 386.105 249.195 385.976 260.056 386.034 281.591 386.187 292.405 386.223 295.571 384.646 312.399 376.256 295.536 332.904 291.535 287.327ZM329.744 86.0534C330.827 137.972 321.389 169.792 313.069 197.87 304.938 225.288 297.913 248.965 301.231 286.598 302.502 301.119 305.185 315.758 307.55 328.691 310.151 342.93 312.399 355.227 312.61 365.382 312.716 370.513 313.034 386.129 300.196 392.53 295.877 394.684 289.511 395.072 273.789 395.072 269.776 395.072 265.199 395.037 259.985 395.001 257.726 394.988 255.267 394.988 252.807 394.988 243.687 394.988 234.367 395.07 234.261 395.07L234.085 395.07C233.991 395.07 224.671 394.988 215.539 394.988 213.091 394.988 210.632 394.988 208.373 395.001 203.159 395.037 198.57 395.072 194.569 395.072 178.847 395.072 172.493 394.684 168.162 392.53 155.324 386.129 155.642 370.513 155.748 365.382 155.948 355.227 158.207 342.93 160.808 328.691 163.173 315.758 165.856 301.119 167.139 286.598 170.445 248.965 163.42 225.288 155.289 197.87 146.969 169.792 137.531 137.972 138.614 86.0534 139.037 65.7425 140.979 45.3609 144.404 25.45L145.71 17.8952 322.648 17.8952 323.943 25.45C327.367 45.3609 329.32 65.7425 329.744 86.0534" fill="#FFFFFF" transform="matrix(1 0 0 1.09672 324 469)"/><path d="M199.735 182.607 199.735 377.927 198.664 377.927C195.052 377.927 191.086 377.913 187.144 377.913L186.967 377.913C182.613 377.842 177.871 377.666 176.212 377.254 170.669 373.877 174.953 350.483 178.412 331.643 180.825 318.357 183.578 303.318 184.932 288.044 188.509 247.269 180.719 221.003 172.47 193.173 172.269 192.502 172.07 191.82 171.869 191.137 171.046 188.372 170.634 185.489 170.634 182.605L199.735 182.605" fill="#FFFFFF" transform="matrix(1 0 0 1.09672 324 469)"/><path d="M232.402 147.904 232.402 377.927 231.32 377.927C227.177 377.927 222.576 377.913 218.057 377.913 214.339 377.913 210.62 377.913 207.172 377.927L203.301 377.927 203.301 147.904 232.402 147.904" fill="#FFFFFF" transform="matrix(1 0 0 1.09672 324 469)"/><path d="M265.057 113.201 265.057 377.927 263.975 377.927C259.832 377.927 255.231 377.913 250.701 377.913 246.994 377.913 243.275 377.913 239.827 377.927L235.956 377.927 235.956 113.201 265.057 113.201" fill="#FFFFFF" transform="matrix(1 0 0 1.09672 324 469)"/><path d="M297.713 165.25 297.713 165.25C297.713 178.571 297.136 192.104 293.064 204.777 284.156 232.419 281.061 261.144 283.427 288.045 284.768 303.32 287.522 318.359 289.958 331.644 293.406 350.484 297.677 373.878 292.147 377.256 290.734 377.621 287.157 377.785 283.462 377.879 282.991 377.893 282.544 377.893 282.073 377.915L281.885 377.915C278.673 377.915 275.484 377.915 272.483 377.928L268.611 377.928 268.611 165.25 297.713 165.25" fill="#FFFFFF" transform="matrix(1 0 0 1.09672 324 469)"/></g></g></g><text fill="#FFFFFF" font-family="Segoe UI Variable Display Light,Segoe UI Variable Display Light_MSFontService,sans-serif" font-weight="700" font-size="165" transform="matrix(1 0 0 1 749.062 646)">Pubmetrix</text><text fill="#FFFFFF" font-family="Segoe UI Variable Display Light,Segoe UI Variable Display Light_MSFontService,sans-serif" font-weight="700" font-size="165" transform="matrix(1 0 0 1 1457.19 646)">Ltd</text><text fill="#FFFFFF" font-family="Segoe UI Variable Display Light,Segoe UI Variable Display Light_MSFontService,sans-serif" font-style="oblique" font-weight="300" font-size="92" transform="matrix(1 0 0 1 749.063 794)">Simplifying your payroll</text><text fill="#FFFFFF" font-family="Segoe UI Variable Display Light,Segoe UI Variable Display Light_MSFontService,sans-serif" font-weight="700" font-size="128" transform="matrix(1 0 0 1 341.141 1170)">Frontend/DevOps Engineer</text><text fill="#E6EDF3" font-family="Arial,Arial_MSFontService,sans-serif" font-weight="400" font-size="92" transform="matrix(1 0 0 1 436.634 1366)">•</text><text fill="#E6EDF3" font-family="Segoe UI Variable Display Light,Segoe UI Variable Display Light_MSFontService,sans-serif" font-weight="300" font-size="92" transform="matrix(1 0 0 1 539.759 1366)">Designed and implemented the </text><text fill="#E6EDF3" font-family="Segoe UI Variable Display Light,Segoe UI Variable Display Light_MSFontService,sans-serif" font-weight="300" font-size="92" transform="matrix(1 0 0 1 539.759 1531)">user interface</text><text fill="#E6EDF3" font-family="Arial,Arial_MSFontService,sans-serif" font-weight="400" font-size="92" transform="matrix(1 0 0 1 436.634 1696)">•</text><text fill="#E6EDF3" font-family="Segoe UI Variable Display Light,Segoe UI Variable Display Light_MSFontService,sans-serif" font-weight="300" font-size="92" transform="matrix(1 0 0 1 539.759 1696)">Created CI/CD processes</text><text fill="#E6EDF3" font-family="Arial,Arial_MSFontService,sans-serif" font-weight="400" font-size="92" transform="matrix(1 0 0 1 436.634 1861)">•</text><text fill="#E6EDF3" font-family="Segoe UI Variable Display Light,Segoe UI Variable Display Light_MSFontService,sans-serif" font-weight="300" font-size="92" transform="matrix(1 0 0 1 539.759 1861)">Provisioned virtual infrastructure</text><text fill="#FFFFFF" font-family="Segoe UI Variable Display Light,Segoe UI Variable Display Light_MSFontService,sans-serif" font-weight="700" font-size="110" transform="matrix(1 0 0 1 2177.31 1568)">… Even see the app explainer video </text><text fill="#FFFFFF" font-family="Segoe UI Variable Display Light,Segoe UI Variable Display Light_MSFontService,sans-serif" font-weight="700" font-size="110" transform="matrix(1 0 0 1 2096.35 1400)">Come and check out app!</text><text fill="#FFFFFF" font-family="Segoe UI Variable Display Light,Segoe UI Variable Display Light_MSFontService,sans-serif" font-weight="300" font-size="83" transform="matrix(1 0 0 1 2096.35 1737)">Both links can be found below</text><text fill="#E6EDF3" font-family="Segoe UI Variable Display Light,Segoe UI Variable Display Light_MSFontService,sans-serif" font-weight="300" font-size="92" transform="matrix(1 0 0 1 2096.35 649)">We at </text><text fill="#E6EDF3" font-family="Segoe UI Variable Display Light,Segoe UI Variable Display Light_MSFontService,sans-serif" font-weight="300" font-size="92" transform="matrix(1 0 0 1 2334.11 649)">Pubmetrix</text><text fill="#E6EDF3" font-family="Segoe UI Variable Display Light,Segoe UI Variable Display Light_MSFontService,sans-serif" font-weight="300" font-size="92" transform="matrix(1 0 0 1 2727.7 649)">have developed an easy</text><text fill="#E6EDF3" font-family="Segoe UI Variable Display Light,Segoe UI Variable Display Light_MSFontService,sans-serif" font-weight="300" font-size="92" transform="matrix(1 0 0 1 3619.74 649)">-</text><text fill="#E6EDF3" font-family="Segoe UI Variable Display Light,Segoe UI Variable Display Light_MSFontService,sans-serif" font-weight="300" font-size="92" transform="matrix(1 0 0 1 3655.26 649)">to</text><text fill="#E6EDF3" font-family="Segoe UI Variable Display Light,Segoe UI Variable Display Light_MSFontService,sans-serif" font-weight="300" font-size="92" transform="matrix(1 0 0 1 3732.6 649)">-</text><text fill="#E6EDF3" font-family="Segoe UI Variable Display Light,Segoe UI Variable Display Light_MSFontService,sans-serif" font-weight="300" font-size="92" transform="matrix(1 0 0 1 3768.12 649)">use </text><text fill="#E6EDF3" font-family="Segoe UI Variable Display Light,Segoe UI Variable Display Light_MSFontService,sans-serif" font-weight="300" font-size="92" transform="matrix(1 0 0 1 2096.35 759)">metrics service so you can view weekly trends in </text><text fill="#E6EDF3" font-family="Segoe UI Variable Display Light,Segoe UI Variable Display Light_MSFontService,sans-serif" font-weight="300" font-size="92" transform="matrix(1 0 0 1 2096.35 869)">sales, cost and profit figures. Metrics can be inputted </text><text fill="#E6EDF3" font-family="Segoe UI Variable Display Light,Segoe UI Variable Display Light_MSFontService,sans-serif" font-weight="300" font-size="92" transform="matrix(1 0 0 1 2096.35 979)">with just a few clicks of a button! An app made by </text><text fill="#E6EDF3" font-family="Segoe UI Variable Display Light,Segoe UI Variable Display Light_MSFontService,sans-serif" font-weight="300" font-size="92" transform="matrix(1 0 0 1 2096.35 1089)">landlords for landlords</text></g></svg>